<?xml version="1.0" encoding="iso-8859-1"?>
<!-- Generator: Adobe Illustrator 19.0.0, SVG Export Plug-In . SVG Version: 6.00 Build 0)  -->
<svg version="1.1" id="Capa_1" xmlns="http://www.w3.org/2000/svg" xmlns:xlink="http://www.w3.org/1999/xlink" x="0px" y="0px"
	 viewBox="0 0 233.554 233.554" style="enable-background:new 0 0 233.554 233.554;" xml:space="preserve">
<g>
	<path d="M42.32,146.242c9.466,0,17.164-10.334,17.164-23.038c0-12.704-7.698-23.038-17.164-23.038
		c-9.468,0-17.166,10.334-17.166,23.038C25.154,135.908,32.852,146.242,42.32,146.242z"/>
	<path d="M83.236,146.242c9.456,0,17.164-10.334,17.164-23.038c0-12.704-7.707-23.038-17.164-23.038
		c-9.468,0-17.166,10.334-17.166,23.038C66.07,135.908,73.768,146.242,83.236,146.242z"/>
	<path d="M115.279,134.751c-7.445-1.466-14.79,5.101-16.732,14.963c-1.939,9.851,2.367,18.714,9.813,20.179
		c7.437,1.464,14.791-5.103,16.73-14.954C127.032,145.078,122.715,136.215,115.279,134.751z"/>
	<path d="M27.007,149.714c-1.942-9.862-9.286-16.429-16.732-14.963c-7.436,1.464-11.753,10.326-9.811,20.189
		c1.939,9.851,9.293,16.418,16.73,14.954C24.64,168.428,28.946,159.565,27.007,149.714z"/>
	<path d="M88.687,175.066c-2.02-12.482-12.867-22.045-25.91-22.045c-13.043,0-23.891,9.563-25.91,22.045
		c-9.284,4.05-15.791,13.313-15.791,24.071c0,14.475,11.776,26.251,26.251,26.251c5.772,0,11.112-1.877,15.451-5.047
		c4.338,3.17,9.678,5.047,15.451,5.047c14.475,0,26.251-11.776,26.251-26.251C104.479,188.379,97.97,179.116,88.687,175.066z"/>
	<path d="M150.32,54.242c9.466,0,17.164-10.334,17.164-23.038c0-12.704-7.698-23.038-17.164-23.038
		c-9.468,0-17.166,10.334-17.166,23.038C133.154,43.908,140.852,54.242,150.32,54.242z"/>
	<path d="M191.236,54.242c9.456,0,17.164-10.334,17.164-23.038c0-12.704-7.707-23.038-17.164-23.038
		c-9.468,0-17.166,10.334-17.166,23.038C174.07,43.908,181.768,54.242,191.236,54.242z"/>
	<path d="M223.279,42.751c-7.445-1.466-14.79,5.101-16.732,14.963c-1.939,9.851,2.367,18.714,9.813,20.179
		c7.437,1.464,14.791-5.103,16.73-14.954C235.032,53.078,230.715,44.215,223.279,42.751z"/>
	<path d="M125.194,77.894c7.445-1.466,11.752-10.329,9.813-20.179c-1.942-9.862-9.286-16.429-16.732-14.963
		c-7.436,1.464-11.753,10.326-9.811,20.189C110.404,72.791,117.758,79.358,125.194,77.894z"/>
	<path d="M196.687,83.066c-2.02-12.482-12.867-22.045-25.91-22.045c-13.043,0-23.891,9.563-25.91,22.045
		c-9.284,4.05-15.791,13.313-15.791,24.071c0,14.475,11.776,26.251,26.251,26.251c5.772,0,11.112-1.877,15.451-5.047
		c4.338,3.17,9.678,5.047,15.451,5.047c14.475,0,26.251-11.776,26.251-26.251C212.479,96.379,205.97,87.116,196.687,83.066z"/>
</g>
<g>
</g>
<g>
</g>
<g>
</g>
<g>
</g>
<g>
</g>
<g>
</g>
<g>
</g>
<g>
</g>
<g>
</g>
<g>
</g>
<g>
</g>
<g>
</g>
<g>
</g>
<g>
</g>
<g>
</g>
</svg>
