<?xml version="1.0" encoding="iso-8859-1"?>
<!-- Generator: Adobe Illustrator 19.0.0, SVG Export Plug-In . SVG Version: 6.00 Build 0)  -->
<svg version="1.1" id="Layer_1" xmlns="http://www.w3.org/2000/svg" xmlns:xlink="http://www.w3.org/1999/xlink" x="0px" y="0px"
	 viewBox="0 0 527.087 527.087" style="enable-background:new 0 0 527.087 527.087;" xml:space="preserve">
<circle style="fill:#88EB92;" cx="260.051" cy="255.89" r="255.89"/>
<path style="fill:#73D17C;stroke:#4BC2A2;stroke-width:30.448;" d="M505.793,327.478c-30.464,104.763-126.104,181.774-240.1,184.247
	L109.18,355.213l1.319-40.942l127.551-87.8l35.867-130.867L505.793,327.478z"/>
<path style="fill:#F9F9F9;" d="M192.639,215.571c0,0-46.034,9.892-60.726,19.802c-14.691,9.892-20.132,35.776-21.396,78.897
	c-0.476,15.772-0.934,29.658-1.337,40.923H153.2l5.019-47.939l1.795,47.939h156.091l2.821-47.939l3.993,47.939h43.213
	c-0.403-11.266-0.879-25.151-1.337-40.923c-1.282-43.122-6.723-69.005-21.414-78.897c-15.626-10.533-55.322-18.575-78.494-23.484
	l-2.803-12.585c12.621-12.841,20.975-34.787,20.975-57.208c0-34.97-6.1-57.85-45.411-57.85s-45.411,22.88-45.411,57.85
	c0,22.202,8.207,43.928,20.608,56.824l-2.894,12.969L192.639,215.571z"/>
<circle style="fill:#FF8C8A;" cx="338.593" cy="355.203" r="72.35"/>
<rect x="302.989" y="348.362" style="fill:#FFFFFF;" width="71.222" height="13.666"/>
<g>
</g>
<g>
</g>
<g>
</g>
<g>
</g>
<g>
</g>
<g>
</g>
<g>
</g>
<g>
</g>
<g>
</g>
<g>
</g>
<g>
</g>
<g>
</g>
<g>
</g>
<g>
</g>
<g>
</g>
</svg>
