<?xml version="1.0" encoding="iso-8859-1"?>
<!-- Generator: Adobe Illustrator 19.0.0, SVG Export Plug-In . SVG Version: 6.00 Build 0)  -->
<svg version="1.1" id="Capa_1" xmlns="http://www.w3.org/2000/svg" xmlns:xlink="http://www.w3.org/1999/xlink" x="0px" y="0px"
	 viewBox="0 0 489.792 489.792" style="enable-background:new 0 0 489.792 489.792;" xml:space="preserve">
<g>
	<g>
		<g>
			<circle cx="244.896" cy="136.846" r="103.8"/>
			<circle cx="348.696" cy="367.046" r="15.5"/>
			<path d="M166.796,308.646c-7.4-7-16.3-11.3-25.7-11.3c-9.7,0-18.7,4.3-26,11.7C129.096,305.946,146.896,304.846,166.796,308.646z
				"/>
			<path d="M489.396,419.046c-12.1-78.1-60.6-144.2-127.5-180.4c3.1,22.2,6.2,59.5-1.2,92.5c14.8,5.1,25.7,19,25.7,35.8
				c0,20.6-16.7,37.7-37.7,37.7c-20.6,0-37.7-16.7-37.7-37.7c0-17.9,12.4-32.7,29.2-36.5c10.1-38.9,1.9-89-0.4-102.2
				c-2.7-1.2-5.4-2.3-8.2-3.1c-22.5,21.8-52.9,35.4-86.7,35.4c-33,0-63.4-13.2-85.5-34.6c-3.5,7.4-10.1,25.3-8.9,52.1
				c33,6.2,58.3,44.3,58.3,90.6c0,17.1-3.5,33.8-10.1,48.2c-3.5,10.5-18.7,14.8-25.7,14.8c-10.5,0-19-8.6-19-19s8.6-19,19-19
				c3.1,0,7.4,0.8,12.1,2.3c7.7-25.5,1.9-51.3-1.9-61.4c-37.3-16.3-71.5-5.1-84,0c-3.5,10.1-9.9,33.6-1.9,61.4
				c4.7-1.9,8.9-2.7,12.1-2.7c10.5,0,19,8.6,19,19s-8.6,19-19,19c-6.6,0-21.4-4.3-25.3-14l0,0c-7-14.8-10.5-31.5-10.5-49
				c0-45.5,24.9-83.2,57.1-90.2c-0.8-17.5,1.6-32.3,4.3-43.1c-70.9,35.7-122.2,103.3-134.6,184.1c-3.1,19.8,12.4,37.7,32.3,37.7
				h424.1C476.996,456.846,492.496,438.946,489.396,419.046z"/>
		</g>
	</g>
</g>
<g>
</g>
<g>
</g>
<g>
</g>
<g>
</g>
<g>
</g>
<g>
</g>
<g>
</g>
<g>
</g>
<g>
</g>
<g>
</g>
<g>
</g>
<g>
</g>
<g>
</g>
<g>
</g>
<g>
</g>
</svg>
